<svg width="44" height="44" viewBox="0 0 44 44" fill="none" xmlns="http://www.w3.org/2000/svg">
<g clip-path="url(#clip0_63_140)">
<g clip-path="url(#clip1_63_140)">
<path fill-rule="evenodd" clip-rule="evenodd" d="M13.4041 31.1425C12.8577 31.1425 12.4088 31.0157 12.0576 30.762C11.7258 30.5083 11.5111 30.1668 11.4136 29.7374C11.3355 29.3081 11.4233 28.83 11.677 28.3031L19.1708 11.8811C19.4831 11.2176 19.8539 10.7394 20.2832 10.4467C20.7125 10.1345 21.2102 9.97835 21.7761 9.97835C22.3421 9.97835 22.8397 10.1345 23.269 10.4467C23.6984 10.7394 24.0594 11.2176 24.3521 11.8811L31.9045 28.3031C32.1582 28.83 32.246 29.3179 32.1679 29.7667C32.1094 30.1961 31.9142 30.5376 31.5825 30.7913C31.2507 31.0254 30.8214 31.1425 30.2945 31.1425C29.631 31.1425 29.1138 30.9864 28.743 30.6742C28.3918 30.3619 28.0795 29.8741 27.8063 29.2105L26.5933 26.4004H16.9387L15.7459 29.2105C15.4532 29.8936 15.141 30.3912 14.8092 30.7034C14.497 30.9962 14.0286 31.1425 13.4041 31.1425ZM21.7176 15.0718L18.4498 22.8584H25.0694L21.7761 15.0718H21.7176Z" fill="url(#paint0_linear_63_140)"/>
<path fill-rule="evenodd" clip-rule="evenodd" d="M21.7907 43.8306C33.8254 43.8306 43.5814 34.0188 43.5814 21.9153C43.5814 9.81182 33.8254 -4.34075e-06 21.7907 -3.8147e-06C9.75604 -3.28864e-06 0 9.81182 0 21.9153C0 34.0188 9.75604 43.8306 21.7907 43.8306ZM21.7907 39.7192C31.5326 39.7192 39.47 31.7703 39.47 21.9153C39.47 12.0604 31.5326 4.11145 21.7907 4.11145C12.0488 4.11145 4.11146 12.0604 4.11146 21.9153C4.11146 31.7703 12.0488 39.7192 21.7907 39.7192Z" fill="url(#paint1_linear_63_140)"/>
<path d="M101.017 31.322C100.197 31.322 99.358 31.2537 98.4993 31.1171C97.6602 31 96.8503 30.8244 96.0697 30.5902C95.3086 30.356 94.6256 30.0633 94.0206 29.712C93.5913 29.4778 93.2888 29.1753 93.1132 28.8045C92.9375 28.4142 92.8692 28.0239 92.9082 27.6336C92.9668 27.2433 93.1132 26.9018 93.3473 26.6091C93.601 26.2968 93.9133 26.1017 94.2841 26.0236C94.6744 25.9261 95.1037 25.9944 95.5721 26.2285C96.3722 26.6774 97.2406 27.0091 98.1773 27.2238C99.1336 27.4385 100.08 27.5458 101.017 27.5458C102.441 27.5458 103.456 27.3311 104.061 26.9018C104.666 26.453 104.969 25.8968 104.969 25.2333C104.969 24.6673 104.754 24.2185 104.325 23.8867C103.895 23.555 103.144 23.272 102.071 23.0378L98.7628 22.3353C96.8893 21.945 95.494 21.2814 94.5768 20.3447C93.6791 19.3885 93.2302 18.1395 93.2302 16.5978C93.2302 15.6221 93.4352 14.7341 93.845 13.934C94.2548 13.1339 94.8305 12.4411 95.5721 11.8556C96.3136 11.2702 97.1918 10.8213 98.2066 10.5091C99.2409 10.1968 100.373 10.0407 101.602 10.0407C102.695 10.0407 103.768 10.1773 104.822 10.4505C105.876 10.7042 106.803 11.0848 107.603 11.5922C107.993 11.8264 108.257 12.1288 108.394 12.4996C108.55 12.8509 108.598 13.2119 108.54 13.5827C108.501 13.934 108.354 14.2462 108.101 14.5194C107.867 14.7927 107.564 14.9683 107.193 15.0464C106.823 15.1244 106.374 15.0366 105.847 14.7829C105.203 14.4511 104.52 14.2072 103.798 14.0511C103.076 13.895 102.334 13.8169 101.573 13.8169C100.753 13.8169 100.051 13.9242 99.4653 14.1389C98.8994 14.3536 98.4603 14.6561 98.1481 15.0464C97.8553 15.4367 97.709 15.8855 97.709 16.3929C97.709 16.9588 97.9139 17.4174 98.3237 17.7687C98.7335 18.12 99.4458 18.403 100.461 18.6176L103.768 19.3202C105.681 19.73 107.106 20.3935 108.042 21.3107C108.979 22.2084 109.447 23.3988 109.447 24.882C109.447 25.8577 109.252 26.7457 108.862 27.5458C108.472 28.3264 107.906 28.9997 107.164 29.5656C106.422 30.1316 105.535 30.5707 104.5 30.8829C103.466 31.1756 102.305 31.322 101.017 31.322Z" fill="url(#paint2_linear_63_140)"/>
<path fill-rule="evenodd" clip-rule="evenodd" d="M47.584 30.8829C47.9353 31.1366 48.3841 31.2634 48.9305 31.2634C49.555 31.2634 50.0234 31.1171 50.3356 30.8244C50.6674 30.5121 50.9796 30.0145 51.2724 29.3314L52.4652 26.5213H62.1197L63.3327 29.3314C63.6059 29.995 63.9182 30.4828 64.2695 30.7951C64.6402 31.1073 65.1574 31.2634 65.8209 31.2634C66.3478 31.2634 66.7772 31.1464 67.1089 30.9122C67.4407 30.6585 67.6358 30.317 67.6944 29.8876C67.7724 29.4388 67.6846 28.9509 67.4309 28.424L59.8785 12.002C59.5858 11.3385 59.2248 10.8604 58.7955 10.5676C58.3661 10.2554 57.8685 10.0993 57.3025 10.0993C56.7366 10.0993 56.239 10.2554 55.8096 10.5676C55.3803 10.8604 55.0095 11.3385 54.6973 12.002L47.2034 28.424C46.9498 28.9509 46.8619 29.429 46.94 29.8584C47.0376 30.2877 47.2522 30.6292 47.584 30.8829ZM53.9762 22.9793L57.244 15.1927H57.3025L60.5959 22.9793H53.9762Z" fill="url(#paint3_linear_63_140)"/>
<path fill-rule="evenodd" clip-rule="evenodd" d="M71.2928 30.3853C71.7027 30.7951 72.2881 31 73.0492 31H78.7574C80.5333 31 82.1042 30.7756 83.4703 30.3267C84.8364 29.8584 85.9878 29.1851 86.9245 28.3069C87.8612 27.4287 88.5735 26.3554 89.0614 25.0869C89.5688 23.7989 89.8225 22.3255 89.8225 20.6667C89.8225 17.3687 88.8565 14.8317 86.9245 13.0558C85.012 11.2604 82.2896 10.3627 78.7574 10.3627H73.0492C72.2881 10.3627 71.7027 10.5676 71.2928 10.9774C70.883 11.3873 70.6781 11.9727 70.6781 12.7338V28.6289C70.6781 29.39 70.883 29.9754 71.2928 30.3853ZM78.4939 27.2824H75.2154V14.0804H78.4939C80.6796 14.0804 82.3189 14.6268 83.4118 15.7196C84.5241 16.793 85.0803 18.442 85.0803 20.6667C85.0803 21.7791 84.9437 22.7548 84.6705 23.594C84.3973 24.4136 83.9875 25.0967 83.441 25.6431C82.8946 26.1895 82.2116 26.5993 81.3919 26.8725C80.5723 27.1457 79.6063 27.2824 78.4939 27.2824Z" fill="url(#paint4_linear_63_140)"/>
</g>
</g>
<defs>
<linearGradient id="paint0_linear_63_140" x1="21.9084" y1="-1.11093e-05" x2="21.9084" y2="43.8306" gradientUnits="userSpaceOnUse">
<stop stop-color="#4DD1F6"/>
<stop offset="1" stop-color="#0381F6"/>
</linearGradient>
<linearGradient id="paint1_linear_63_140" x1="21.9084" y1="-1.11093e-05" x2="21.9084" y2="43.8306" gradientUnits="userSpaceOnUse">
<stop stop-color="#4DD1F6"/>
<stop offset="1" stop-color="#0381F6"/>
</linearGradient>
<linearGradient id="paint2_linear_63_140" x1="21.9084" y1="-1.11093e-05" x2="21.9084" y2="43.8306" gradientUnits="userSpaceOnUse">
<stop stop-color="#4DD1F6"/>
<stop offset="1" stop-color="#0381F6"/>
</linearGradient>
<linearGradient id="paint3_linear_63_140" x1="21.9084" y1="-1.11093e-05" x2="21.9084" y2="43.8306" gradientUnits="userSpaceOnUse">
<stop stop-color="#4DD1F6"/>
<stop offset="1" stop-color="#0381F6"/>
</linearGradient>
<linearGradient id="paint4_linear_63_140" x1="21.9084" y1="-1.11093e-05" x2="21.9084" y2="43.8306" gradientUnits="userSpaceOnUse">
<stop stop-color="#4DD1F6"/>
<stop offset="1" stop-color="#0381F6"/>
</linearGradient>
<clipPath id="clip0_63_140">
<rect width="44" height="44" fill="white"/>
</clipPath>
<clipPath id="clip1_63_140">
<rect width="110" height="44" fill="white"/>
</clipPath>
</defs>
</svg>
